<?xml version="1.0" encoding="UTF-8"?>
<svg width="700pt" height="700pt" version="1.1" viewBox="0 0 700 700" xmlns="http://www.w3.org/2000/svg">
 <g>
  <path d="m507.84 525c-0.085938 0.007812-0.22266 0-0.33984 0h-315c-4.8008 0-9.3984-1.9844-12.715-5.4766-3.2969-3.4844-5.0234-8.1953-4.75-12.996l17.5-315c0.51172-9.2734 8.1836-16.527 17.465-16.527h280c9.2812 0 16.953 7.2539 17.465 16.523l17.312 311.53c0.375 1.418 0.5625 2.9062 0.5625 4.4414 0 9.668-7.8242 17.504-17.5 17.504zm-296.85-35h278.02l-15.566-280h-246.88z"/>
  <path d="m419.98 245c-8.6328 0-16.152-6.375-17.328-15.168l-18.918-140.54c-7.0117-11.961-19.707-19.293-33.738-19.293s-26.727 7.332-33.734 19.293l-18.918 140.54c-1.2812 9.5703-9.8438 16.289-19.688 15.012-9.5703-1.2891-16.289-10.098-15.004-19.68l19.348-143.69c0.25391-1.9141 0.83984-3.7695 1.6914-5.4844 12.625-25.281 38.039-40.988 66.305-40.988s53.68 15.707 66.309 40.992c0.85547 1.7148 1.4336 3.5703 1.6914 5.4844l19.348 143.69c1.2812 9.5781-5.4336 18.391-15.004 19.68-0.80469 0.10156-1.5898 0.15234-2.3594 0.15234z"/>
 </g>
</svg>
